# xmcd
#
# Track frame offsets:
#	150
#	18043
#	35142
#	54698
#	73098
#	92237
#	106210
#	123120
#	141534
#	155820
#	172171
#	188396
#	217172
#	235329
#	253371
#	277065
#	296255
#	313017
#	329862
#
# Disc length: 4668 seconds
#
# Revision: 1
# Processed by: cddbd v1.5.2PL0 Copyright (c) Steve Scherf et al.
# Submitted via: audiograbber 1.83.01
#
DISCID=33123a13
DTITLE=Vince Gill - Custom Music CD
DYEAR=1900
DGENRE=
TTITLE0=Vince Gill - I Still Believe In You
TTITLE1=Vince Gill - Pretty Little Adrianna
TTITLE2=Vince Gill - Whenever You Come Around
TTITLE3=Vince Gill - When Love Finds You
TTITLE4=Vince Gill - When I Call Your Name
TTITLE5=Vince Gill - What The Cowgirls Do
TTITLE6=Vince Gill - Trying To Get Over You
TTITLE7=Vince Gill - Pocket Full Of Gold
TTITLE8=Vince Gill - One More Last Chance
TTITLE9=Sarah Evens and Vince Gill - No Place That Far (1)
TTITLE10=Lee Ann Womack and Vince Gill - I Keep Forgetting
TTITLE11=Diamond Rio and Vince Gill - Dale Earnhardt Tribute
TTITLE12=Vince Gill - Never Knew Lonely
TTITLE13=Vince Gill - Look At Us
TTITLE14=Vince Gill - Go Rest High On That Mountain (& Patty Loveless, Ricky Sk
TTITLE14=aggs)
TTITLE15=Vince Gill - Feels Like Love 
TTITLE16=Vince Gill - I've been trying to get over you
TTITLE17=Vince Gill - Don't Let Our Love Start Slippin' Away
TTITLE18=Vince Gill and Emmylou Harris - Precious Memories
EXTD=
EXTT0=
EXTT1=
EXTT2=
EXTT3=
EXTT4=
EXTT5=
EXTT6=
EXTT7=
EXTT8=
EXTT9=
EXTT10=
EXTT11=
EXTT12=
EXTT13=
EXTT14=
EXTT15=
EXTT16=
EXTT17=
EXTT18=
PLAYORDER=
